# xmcd CD database file
#
# Track frame offsets:
#	150
#	11642
#	24530
#	39247
#	53472
#	69440
#	83651
#	97148
#	115390
#	137078
#	155064
#	171974
#	187604
#	204170
#
# Disc length: 2991 seconds
#
# Revision: 0
# Processed by: cddbd v1.5.2PL0 Copyright (c) Steve Scherf et al.
# Submitted via: CDex 1.70beta2
#
DISCID=ac0bad0e
DTITLE=Daley, Lorne [CDN-OVM-cty-11) Ottawa, ON - Country From Where I Stand
DYEAR=2011
DGENRE=Country
TTITLE0=Lonesome For You
TTITLE1=I'm Tired
TTITLE2=Sea of Heartbreak
TTITLE3=When You're In Love
TTITLE4=It's Four In The Morning
TTITLE5=I've Got A Lot to Learn
TTITLE6=Back On My Mind
TTITLE7=Hoe Your Own Row
TTITLE8=Lorne Daley - Silver Sea
TTITLE9=Red Is The Rose
TTITLE10=G'day G'day From The Pontiac
TTITLE11=South Of The Border
TTITLE12=Here In The Real World
TTITLE13=Lorne Daley - The Spirit Of Home 
EXTD=YEAR: 2011
EXTT0=
EXTT1=
EXTT2=
EXTT3=
EXTT4=
EXTT5=
EXTT6=
EXTT7=
EXTT8=
EXTT9=
EXTT10=
EXTT11=
EXTT12=
EXTT13=
PLAYORDER=
